<svg xmlns="http://www.w3.org/2000/svg" version="1.1" xmlns:xlink="http://www.w3.org/1999/xlink" xmlns:svgjs="http://svgjs.dev/svgjs" width="2000" height="1252" viewBox="0 0 2000 1252"><g transform="matrix(1,0,0,1,-1.2121212121212466,-2.01935483870966)"><svg viewBox="0 0 396 248" data-background-color="#ffffff" preserveAspectRatio="xMidYMid meet" height="1252" width="2000" xmlns="http://www.w3.org/2000/svg" xmlns:xlink="http://www.w3.org/1999/xlink"><g id="tight-bounds" transform="matrix(1,0,0,1,0.2400000000000091,0.4000000000000057)"><svg viewBox="0 0 395.52 247.2" height="247.2" width="395.52"><g><svg></svg></g><g><svg viewBox="0 0 395.52 247.2" height="247.2" width="395.52"><g transform="matrix(1,0,0,1,75.54432,82.41718089422028)"><svg viewBox="0 0 244.43135999999998 82.36563821155943" height="82.36563821155943" width="244.43135999999998"><g><svg viewBox="0 0 244.43135999999998 82.36563821155943" height="82.36563821155943" width="244.43135999999998"><g><svg viewBox="0 0 244.43135999999998 82.36563821155943" height="82.36563821155943" width="244.43135999999998"><g><svg viewBox="0 0 244.43135999999998 82.36563821155943" height="82.36563821155943" width="244.43135999999998"><g id="textblocktransform"><svg viewBox="0 0 244.43135999999998 82.36563821155943" height="82.36563821155943" width="244.43135999999998" id="textblock"><g><svg viewBox="0 0 244.43135999999998 82.36563821155943" height="82.36563821155943" width="244.43135999999998"><g transform="matrix(1,0,0,1,0,0)"><svg width="244.43135999999998" viewBox="-1.35 -47.85 183.4 61.8" height="82.36563821155943" data-palette-color="#ffffff"><path d="M36.55-20.55L36.55-20.55Q31.1-20.55 27.68-22.28 24.25-24 22.63-26.73 21-29.45 21-32.4L21-32.4Q21-35.25 22.5-38 24-40.75 26.88-42.98 29.75-45.2 33.98-46.53 38.2-47.85 43.6-47.85L43.6-47.85Q46.65-47.85 49.65-46.98 52.65-46.1 55.53-44.73 58.4-43.35 61.03-41.83 63.65-40.3 65.88-38.95 68.1-37.6 69.83-36.75 71.55-35.9 72.65-35.9L72.65-35.9 72.65-35.35Q71.25-35.3 69.05-36.48 66.85-37.65 64.05-39.38 61.25-41.1 57.98-42.83 54.7-44.55 51.18-45.73 47.65-46.9 44.05-46.9L44.05-46.9Q39.35-46.9 35.27-45.78 31.2-44.65 28.15-42.6 25.1-40.55 23.4-37.83 21.7-35.1 21.7-31.95L21.7-31.95Q21.7-28.65 23.55-26.2 25.4-23.75 28.78-22.38 32.15-21 36.6-21L36.6-21Q40.3-21 43.33-22.33 46.35-23.65 48.15-25.88 49.95-28.1 49.95-30.8L49.95-30.8Q49.95-32.7 49.03-34.18 48.1-35.65 46.35-36.3L46.35-36.3 46.65-36.7Q48.5-35.9 49.5-34.38 50.5-32.85 50.5-30.8L50.5-30.8Q50.5-27.95 48.65-25.63 46.8-23.3 43.63-21.93 40.45-20.55 36.55-20.55ZM98.85-35.1L98.85-35.1Q95.3-34.8 91.38-33.2 87.45-31.6 83.45-29.1 79.45-26.6 75.65-23.55 71.85-20.5 68.55-17.3 65.25-14.1 62.75-11.13 60.25-8.15 58.85-5.8 57.45-3.45 57.45-2.1L57.45-2.1Q57.45-2 57.5-2L57.5-2Q57.65-2 58.13-2.65 58.6-3.3 59.18-4.17 59.75-5.05 60.25-5.8L60.25-5.8Q61.95-8.4 62.8-11.38 63.65-14.35 64.28-17.5 64.9-20.65 65.8-23.83 66.7-27 68.42-30.03 70.15-33.05 73.2-35.7L73.2-35.7 73.8-35.55Q72.2-34.5 70.98-32.23 69.75-29.95 68.7-26.85 67.65-23.75 66.63-20.3 65.6-16.85 64.42-13.43 63.25-10 61.78-7.03 60.3-4.05 58.35-2L58.35-2Q57.1-0.75 56.75-0.75L56.75-0.75Q56.4-0.75 56.4-1.1L56.4-1.1Q56.4-2.6 57.83-5.13 59.25-7.65 61.8-10.78 64.35-13.9 67.73-17.23 71.1-20.55 75-23.7 78.9-26.85 83-29.43 87.1-32 91.15-33.65 95.2-35.3 98.85-35.6L98.85-35.6Q104.5-36.2 107.18-36.65 109.85-37.1 109.85-38.05L109.85-38.05Q109.85-38.3 109.33-38.53 108.8-38.75 107.95-38.75L107.95-38.75Q104.5-38.75 100.93-37.1 97.35-35.45 93.85-32.77 90.35-30.1 87.15-27.05 83.95-24 81.15-21.15L81.15-21.15Q78.45-18.25 75.88-14.98 73.3-11.7 71.28-8.35 69.25-5 68.05-1.8 66.85 1.4 66.85 4.2L66.85 4.2Q66.85 6.8 67.98 8.33 69.1 9.85 71.05 9.85L71.05 9.85Q73 9.85 74.6 8.55L74.6 8.55 74.75 8.9Q73.2 10.35 71 10.35L71 10.35Q68.5 10.35 66.88 8.38 65.25 6.4 65.25 3.35L65.25 3.35Q65.25 0.7 66.5-2.33 67.75-5.35 69.75-8.43 71.75-11.5 74.08-14.38 76.4-17.25 78.6-19.63 80.8-22 82.4-23.55L82.4-23.55Q84.95-25.95 88-28.65 91.05-31.35 94.38-33.77 97.7-36.2 101.08-37.73 104.45-39.25 107.65-39.25L107.65-39.25Q109.2-39.25 110.23-38.95 111.25-38.65 111.25-38.1L111.25-38.1Q111.25-37.35 110.15-36.85 109.05-36.35 106.35-35.95 103.65-35.55 98.85-35.1ZM65.5-30.5L65.5-30.5Q67.8-32.65 69.4-33.88 71-35.1 72.5-35.9L72.5-35.9 75.05-35.9Q73.85-35.55 72.2-34.65 70.55-33.75 68.9-32.58 67.25-31.4 65.9-30.1L65.9-30.1Q63.25-27.3 61.05-23.88 58.85-20.45 56.75-16.82 54.65-13.2 52.3-9.73 49.95-6.25 47-3.35L47-3.35Q43.35 0.2 38.38 2 33.4 3.8 27.4 3.8L27.4 3.8Q22.55 3.8 18.55 2.27 14.55 0.75 12.18-2.38 9.8-5.5 9.8-10.2L9.8-10.2Q9.8-13.45 11.35-16.23 12.9-19 15.7-21.08 18.5-23.15 22.28-24.3 26.05-25.45 30.5-25.45L30.5-25.45Q37.65-25.45 42.85-23.18 48.05-20.9 50.88-16.73 53.7-12.55 53.7-6.85L53.7-6.85Q53.7-2.5 51.7 1.13 49.7 4.75 46.03 7.4 42.35 10.05 37.38 11.5 32.4 12.95 26.4 12.95L26.4 12.95Q20.5 12.95 15.45 11.18 10.4 9.4 6.63 6.23 2.85 3.05 0.75-1.18-1.35-5.4-1.35-10.35L-1.35-10.35Q-1.35-15.2 0.9-19.43 3.15-23.65 7.15-26.85 11.15-30.05 16.4-31.85 21.65-33.65 27.7-33.65L27.7-33.65Q33.6-33.65 38.02-31.9 42.45-30.15 44.95-27.08 47.45-24 47.45-19.9L47.45-19.9Q47.45-16.75 45.95-14.03 44.45-11.3 41.78-9.25 39.1-7.2 35.55-6.05 32-4.9 27.85-4.9L27.85-4.9Q23.3-4.9 20.73-6.35 18.15-7.8 18.15-10.3L18.15-10.3Q18.15-12.4 19.58-14 21-15.6 23.55-16.48 26.1-17.35 29.45-17.35L29.45-17.35Q33.75-17.35 36.4-15.3L36.4-15.3 36.05-14.9Q33.65-16.85 29.45-16.85L29.45-16.85Q26.25-16.85 23.83-16.03 21.4-15.2 20.03-13.73 18.65-12.25 18.65-10.3L18.65-10.3Q18.65-8 21.13-6.7 23.6-5.4 27.85-5.4L27.85-5.4Q31.85-5.4 35.33-6.5 38.8-7.6 41.4-9.58 44-11.55 45.48-14.2 46.95-16.85 46.95-19.9L46.95-19.9Q46.95-23.85 44.53-26.83 42.1-29.8 37.77-31.48 33.45-33.15 27.7-33.15L27.7-33.15Q21.8-33.15 16.6-31.38 11.4-29.6 7.5-26.48 3.6-23.35 1.38-19.23-0.85-15.1-0.85-10.35L-0.85-10.35Q-0.85-5.55 1.23-1.4 3.3 2.75 7.03 5.88 10.75 9 15.7 10.73 20.65 12.45 26.4 12.45L26.4 12.45Q32.25 12.45 37.18 11.03 42.1 9.6 45.68 7.03 49.25 4.45 51.23 0.93 53.2-2.6 53.2-6.85L53.2-6.85Q53.2-12.45 50.43-16.5 47.65-20.55 42.58-22.75 37.5-24.95 30.5-24.95L30.5-24.95Q26.15-24.95 22.48-23.85 18.8-22.75 16.05-20.73 13.3-18.7 11.8-16.03 10.3-13.35 10.3-10.2L10.3-10.2Q10.3-6.4 12.4-3.85 14.5-1.3 18.15-0.03 21.8 1.25 26.5 1.25L26.5 1.25Q31.15 1.25 35.23-0.5 39.3-2.25 42.85-5.15 46.4-8.05 49.53-11.58 52.65-15.1 55.43-18.68 58.2-22.25 60.7-25.38 63.2-28.5 65.5-30.5ZM123.95-35.3L123.95-35.3 124.25-35.7Q126.1-34.9 127.1-33.38 128.1-31.85 128.1-29.8L128.1-29.8Q128.1-27.4 126.5-25.03 124.9-22.65 121.8-21.1 118.7-19.55 114.15-19.55L114.15-19.55Q108.7-19.55 105.27-21.28 101.85-23 100.22-25.73 98.6-28.45 98.6-31.4L98.6-31.4Q98.6-34.25 100.1-37 101.6-39.75 104.47-41.98 107.35-44.2 111.57-45.53 115.8-46.85 121.2-46.85L121.2-46.85Q124.6-46.85 127.95-45.98 131.3-45.1 134.45-43.73 137.6-42.35 140.45-40.83 143.3-39.3 145.75-37.95 148.2-36.6 150.1-35.75 152-34.9 153.25-34.9L153.25-34.9 153.25-34.35Q151.7-34.3 149.27-35.48 146.85-36.65 143.77-38.38 140.7-40.1 137.12-41.83 133.55-43.55 129.62-44.73 125.7-45.9 121.65-45.9L121.65-45.9Q116.95-45.9 112.87-44.78 108.8-43.65 105.75-41.6 102.7-39.55 101-36.83 99.3-34.1 99.3-30.95L99.3-30.95Q99.3-27.65 101.15-25.2 103-22.75 106.37-21.38 109.75-20 114.2-20L114.2-20Q117.9-20 120.92-21.33 123.95-22.65 125.75-24.88 127.55-27.1 127.55-29.8L127.55-29.8Q127.55-31.7 126.62-33.18 125.7-34.65 123.95-35.3ZM108.1-23.95L108.1-23.95Q103.75-23.95 100.07-22.85 96.4-21.75 93.65-19.73 90.9-17.7 89.4-15.03 87.9-12.35 87.9-9.2L87.9-9.2Q87.9-5.4 90-2.85 92.1-0.3 95.75 0.98 99.4 2.25 104.1 2.25L104.1 2.25Q109.15 2.25 113.57 0.53 118-1.2 121.82-4.1 125.65-7 129.02-10.48 132.4-13.95 135.37-17.55 138.35-21.15 141-24.28 143.65-27.4 146.1-29.5L146.1-29.5Q148.15-31.25 149.82-32.65 151.5-34.05 153.1-34.9L153.1-34.9 155.65-34.9Q154.4-34.5 152.75-33.6 151.1-32.7 149.45-31.53 147.8-30.35 146.5-29.1L146.5-29.1Q143.8-26.4 141.52-23 139.25-19.6 137.05-16 134.85-12.4 132.37-9 129.9-5.6 126.85-2.9L126.85-2.9Q122.8 0.6 117.62 2.7 112.45 4.8 106.5 4.8L106.5 4.8Q102.55 4.8 99.07 3.95 95.6 3.1 92.97 1.35 90.35-0.4 88.87-3.03 87.4-5.65 87.4-9.2L87.4-9.2Q87.4-12.45 88.95-15.23 90.5-18 93.3-20.08 96.1-22.15 99.87-23.3 103.65-24.45 108.1-24.45L108.1-24.45Q115.25-24.45 120.45-22.18 125.65-19.9 128.47-15.73 131.3-11.55 131.3-5.85L131.3-5.85Q131.3-1.5 129.3 2.13 127.3 5.75 123.62 8.4 119.95 11.05 114.97 12.5 110 13.95 104 13.95L104 13.95Q98.1 13.95 93.05 12.18 88 10.4 84.22 7.23 80.45 4.05 78.35-0.18 76.25-4.4 76.25-9.35L76.25-9.35Q76.25-14.2 78.5-18.43 80.75-22.65 84.75-25.85 88.75-29.05 94-30.85 99.25-32.65 105.3-32.65L105.3-32.65Q111.2-32.65 115.62-30.9 120.05-29.15 122.55-26.08 125.05-23 125.05-18.9L125.05-18.9Q125.05-15.75 123.55-13.03 122.05-10.3 119.37-8.25 116.7-6.2 113.15-5.05 109.6-3.9 105.45-3.9L105.45-3.9Q100.9-3.9 98.32-5.35 95.75-6.8 95.75-9.3L95.75-9.3Q95.75-11.4 97.17-13 98.6-14.6 101.15-15.48 103.7-16.35 107.05-16.35L107.05-16.35Q111.35-16.35 114-14.3L114-14.3 113.65-13.9Q111.25-15.85 107.05-15.85L107.05-15.85Q103.85-15.85 101.42-15.03 99-14.2 97.62-12.73 96.25-11.25 96.25-9.3L96.25-9.3Q96.25-7 98.72-5.7 101.2-4.4 105.45-4.4L105.45-4.4Q109.45-4.4 112.92-5.5 116.4-6.6 119-8.58 121.6-10.55 123.07-13.2 124.55-15.85 124.55-18.9L124.55-18.9Q124.55-22.85 122.12-25.83 119.7-28.8 115.37-30.48 111.05-32.15 105.3-32.15L105.3-32.15Q99.4-32.15 94.2-30.38 89-28.6 85.1-25.48 81.2-22.35 78.97-18.23 76.75-14.1 76.75-9.35L76.75-9.35Q76.75-4.55 78.82-0.4 80.9 3.75 84.62 6.88 88.35 10 93.3 11.73 98.25 13.45 104 13.45L104 13.45Q109.85 13.45 114.77 12.03 119.7 10.6 123.27 8.03 126.85 5.45 128.82 1.93 130.8-1.6 130.8-5.85L130.8-5.85Q130.8-11.45 128.02-15.5 125.25-19.55 120.17-21.75 115.1-23.95 108.1-23.95ZM140.05-1.1L140.05-1.1Q140.05-1 140.1-1L140.1-1Q140.25-1 140.75-1.63 141.25-2.25 141.85-3.13 142.45-4 142.85-4.8L142.85-4.8Q144.15-7.2 144.8-10.2 145.45-13.2 145.92-16.48 146.4-19.75 147.12-22.98 147.85-26.2 149.25-29.1 150.65-32 153.25-34.2L153.25-34.2 154.25-34.5Q152.65-33.4 151.55-31.08 150.45-28.75 149.65-25.65 148.85-22.55 148.1-19.1 147.35-15.65 146.42-12.28 145.5-8.9 144.2-5.98 142.9-3.05 140.95-1L140.95-1Q139.8 0.25 139.35 0.25L139.35 0.25Q139 0.25 139-0.1L139-0.1Q139-1.15 140.1-3.13 141.2-5.1 143.15-7.65 145.1-10.2 147.62-13.05 150.15-15.9 153-18.8 155.85-21.7 158.8-24.35 161.75-27 164.55-29.13 167.35-31.25 169.7-32.6L169.7-32.6Q172.35-34.05 175.22-34.95 178.1-35.85 180.35-35.85L180.35-35.85Q180.8-35.85 181.2-35.83 181.6-35.8 182.05-35.75L182.05-35.75 182-35.25Q181.55-35.3 181.15-35.33 180.75-35.35 180.35-35.35L180.35-35.35Q178.2-35.35 175.37-34.48 172.55-33.6 169.95-32.15L169.95-32.15Q167.25-30.6 164-28.03 160.75-25.45 157.37-22.33 154-19.2 150.9-15.93 147.8-12.65 145.35-9.68 142.9-6.7 141.47-4.42 140.05-2.15 140.05-1.1Z" opacity="1" transform="matrix(1,0,0,1,0,0)" fill="#ffffff" class="wordmark-text-0" data-fill-palette-color="primary" id="text-0"></path></svg></g></svg></g></svg></g></svg></g></svg></g></svg></g></svg></g><g><path d="M0 123.6c0-68.262 55.338-123.6 123.6-123.6 50.115 0 93.264 29.826 112.664 72.695l-4.091 0c-19.143-40.759-60.563-68.981-108.573-68.981-66.211 0-119.886 53.675-119.886 119.886 0 66.211 53.675 119.886 119.886 119.886 48.011 0 89.43-28.222 108.573-68.981h4.091c-19.4 42.869-62.549 72.695-112.664 72.695-68.262 0-123.6-55.338-123.6-123.6z" fill="#dcd1c3" stroke="transparent" data-fill-palette-color="tertiary"></path></g></svg></g><defs></defs></svg><rect width="395.52" height="247.2" fill="none" stroke="none" visibility="hidden"></rect></g></svg></g></svg>